<svg width="500" height="41" viewBox="0 0 500 41" fill="none" xmlns="http://www.w3.org/2000/svg">
<rect y="21" width="500" height="10" rx="5" fill="#F30101"/>
<rect y="21" width="198" height="10" rx="5" fill="#00C537"/>
<circle cx="203" cy="26" r="15" fill="#00C537"/>
<circle cx="203" cy="26" r="9" fill="white"/>
<path d="M2.604 12V3.96H0.132V3.06H6.012V3.96H3.564V12H2.604ZM6.34978 12V5.568H7.24978V6.624L7.12978 6.468C7.28178 6.164 7.50978 5.924 7.81378 5.748C8.12578 5.572 8.50178 5.484 8.94178 5.484H9.34978V6.384H8.78578C8.32178 6.384 7.94978 6.528 7.66978 6.816C7.38978 7.104 7.24978 7.512 7.24978 8.04V12H6.34978ZM12.2645 12.144C11.8565 12.144 11.4925 12.068 11.1725 11.916C10.8525 11.756 10.6005 11.54 10.4165 11.268C10.2325 10.996 10.1405 10.684 10.1405 10.332C10.1405 9.996 10.2125 9.692 10.3565 9.42C10.5005 9.14 10.7245 8.904 11.0285 8.712C11.3325 8.52 11.7205 8.384 12.1925 8.304L14.7125 7.884V8.7L12.4085 9.084C11.9445 9.164 11.6085 9.312 11.4005 9.528C11.2005 9.744 11.1005 10 11.1005 10.296C11.1005 10.584 11.2125 10.828 11.4365 11.028C11.6685 11.228 11.9645 11.328 12.3245 11.328C12.7645 11.328 13.1485 11.236 13.4765 11.052C13.8045 10.86 14.0605 10.604 14.2445 10.284C14.4285 9.964 14.5205 9.608 14.5205 9.216V7.584C14.5205 7.2 14.3805 6.888 14.1005 6.648C13.8205 6.408 13.4565 6.288 13.0085 6.288C12.6165 6.288 12.2725 6.388 11.9765 6.588C11.6805 6.78 11.4605 7.032 11.3165 7.344L10.5005 6.9C10.6205 6.628 10.8085 6.38 11.0645 6.156C11.3285 5.932 11.6285 5.756 11.9645 5.628C12.3005 5.492 12.6485 5.424 13.0085 5.424C13.4805 5.424 13.8965 5.516 14.2565 5.7C14.6245 5.884 14.9085 6.14 15.1085 6.468C15.3165 6.788 15.4205 7.16 15.4205 7.584V12H14.5205V10.716L14.6525 10.848C14.5405 11.088 14.3645 11.308 14.1245 11.508C13.8925 11.7 13.6165 11.856 13.2965 11.976C12.9845 12.088 12.6405 12.144 12.2645 12.144ZM17.2717 12V5.568H18.1717V12H17.2717ZM17.2717 4.38V3.06H18.1717V4.38H17.2717ZM20.0138 12V5.568H20.9138V6.816L20.7098 6.768C20.8698 6.352 21.1298 6.024 21.4898 5.784C21.8578 5.544 22.2818 5.424 22.7618 5.424C23.2178 5.424 23.6258 5.528 23.9858 5.736C24.3538 5.944 24.6418 6.232 24.8498 6.6C25.0658 6.96 25.1738 7.368 25.1738 7.824V12H24.2738V8.172C24.2738 7.78 24.2018 7.448 24.0578 7.176C23.9218 6.904 23.7258 6.696 23.4698 6.552C23.2218 6.4 22.9338 6.324 22.6058 6.324C22.2778 6.324 21.9858 6.4 21.7298 6.552C21.4738 6.696 21.2738 6.908 21.1298 7.188C20.9858 7.46 20.9138 7.788 20.9138 8.172V12H20.0138ZM26.8928 12V5.568H27.7928V12H26.8928ZM26.8928 4.38V3.06H27.7928V4.38H26.8928ZM29.6349 12V5.568H30.5349V6.816L30.3309 6.768C30.4909 6.352 30.7509 6.024 31.1109 5.784C31.4789 5.544 31.9029 5.424 32.3829 5.424C32.8389 5.424 33.2469 5.528 33.6069 5.736C33.9749 5.944 34.2629 6.232 34.4709 6.6C34.6869 6.96 34.7949 7.368 34.7949 7.824V12H33.8949V8.172C33.8949 7.78 33.8229 7.448 33.6789 7.176C33.5429 6.904 33.3469 6.696 33.0909 6.552C32.8429 6.4 32.5549 6.324 32.2269 6.324C31.8989 6.324 31.6069 6.4 31.3509 6.552C31.0949 6.696 30.8949 6.908 30.7509 7.188C30.6069 7.46 30.5349 7.788 30.5349 8.172V12H29.6349ZM39.5618 14.64C39.1218 14.64 38.7138 14.572 38.3378 14.436C37.9698 14.3 37.6498 14.112 37.3778 13.872C37.1138 13.64 36.9098 13.368 36.7658 13.056L37.5938 12.612C37.7218 12.916 37.9498 13.18 38.2778 13.404C38.6058 13.628 39.0258 13.74 39.5378 13.74C39.9298 13.74 40.2898 13.664 40.6178 13.512C40.9458 13.36 41.2098 13.136 41.4098 12.84C41.6098 12.544 41.7098 12.18 41.7098 11.748V10.32L41.8538 10.452C41.6298 10.916 41.2978 11.276 40.8578 11.532C40.4178 11.78 39.9378 11.904 39.4178 11.904C38.8178 11.904 38.2778 11.76 37.7978 11.472C37.3178 11.184 36.9378 10.796 36.6578 10.308C36.3858 9.812 36.2498 9.264 36.2498 8.664C36.2498 8.056 36.3858 7.508 36.6578 7.02C36.9378 6.532 37.3138 6.144 37.7858 5.856C38.2658 5.568 38.8098 5.424 39.4178 5.424C39.9378 5.424 40.4098 5.544 40.8338 5.784C41.2658 6.024 41.6058 6.348 41.8538 6.756L41.7098 7.008V5.568H42.6098V11.748C42.6098 12.3 42.4778 12.792 42.2138 13.224C41.9578 13.664 41.5978 14.008 41.1338 14.256C40.6778 14.512 40.1538 14.64 39.5618 14.64ZM39.4658 11.004C39.8818 11.004 40.2578 10.9 40.5938 10.692C40.9298 10.476 41.1978 10.192 41.3978 9.84C41.6058 9.48 41.7098 9.088 41.7098 8.664C41.7098 8.24 41.6058 7.852 41.3978 7.5C41.1978 7.14 40.9298 6.856 40.5938 6.648C40.2578 6.432 39.8818 6.324 39.4658 6.324C39.0418 6.324 38.6578 6.432 38.3138 6.648C37.9698 6.856 37.6978 7.136 37.4978 7.488C37.3058 7.84 37.2098 8.232 37.2098 8.664C37.2098 9.088 37.3058 9.48 37.4978 9.84C37.6978 10.192 37.9658 10.476 38.3018 10.692C38.6458 10.9 39.0338 11.004 39.4658 11.004ZM49.6422 12.144C49.0742 12.144 48.5582 12.036 48.0942 11.82C47.6302 11.604 47.2382 11.316 46.9182 10.956C46.5982 10.588 46.3702 10.184 46.2342 9.744L47.0982 9.42C47.3062 10.028 47.6302 10.492 48.0702 10.812C48.5102 11.124 49.0342 11.28 49.6422 11.28C50.0262 11.28 50.3622 11.22 50.6502 11.1C50.9462 10.972 51.1742 10.796 51.3342 10.572C51.4942 10.348 51.5742 10.088 51.5742 9.792C51.5742 9.352 51.4542 9.012 51.2142 8.772C50.9742 8.532 50.6302 8.348 50.1822 8.22L48.5742 7.74C47.9422 7.556 47.4542 7.248 47.1102 6.816C46.7742 6.384 46.6062 5.892 46.6062 5.34C46.6062 4.868 46.7222 4.452 46.9542 4.092C47.1862 3.724 47.5022 3.436 47.9022 3.228C48.3102 3.02 48.7702 2.916 49.2822 2.916C49.8182 2.916 50.2982 3.016 50.7222 3.216C51.1542 3.408 51.5182 3.664 51.8142 3.984C52.1102 4.304 52.3222 4.66 52.4502 5.052L51.6102 5.388C51.4182 4.86 51.1182 4.46 50.7102 4.188C50.3102 3.916 49.8382 3.78 49.2942 3.78C48.9502 3.78 48.6462 3.84 48.3822 3.96C48.1262 4.08 47.9262 4.252 47.7822 4.476C47.6382 4.7 47.5662 4.964 47.5662 5.268C47.5662 5.636 47.6822 5.968 47.9142 6.264C48.1462 6.552 48.5022 6.768 48.9822 6.912L50.3982 7.332C51.1022 7.54 51.6342 7.84 51.9942 8.232C52.3542 8.624 52.5342 9.116 52.5342 9.708C52.5342 10.188 52.4102 10.612 52.1622 10.98C51.9222 11.34 51.5822 11.624 51.1422 11.832C50.7102 12.04 50.2102 12.144 49.6422 12.144ZM57.184 12.144C56.584 12.144 56.04 12 55.552 11.712C55.072 11.416 54.692 11.012 54.412 10.5C54.132 9.988 53.992 9.408 53.992 8.76C53.992 8.112 54.128 7.54 54.4 7.044C54.672 6.54 55.04 6.144 55.504 5.856C55.976 5.568 56.504 5.424 57.088 5.424C57.552 5.424 57.964 5.512 58.324 5.688C58.692 5.856 59.004 6.088 59.26 6.384C59.516 6.672 59.712 7 59.848 7.368C59.984 7.728 60.052 8.1 60.052 8.484C60.052 8.564 60.048 8.656 60.04 8.76C60.032 8.856 60.02 8.956 60.004 9.06H54.568V8.22H59.488L59.056 8.58C59.128 8.14 59.076 7.748 58.9 7.404C58.732 7.052 58.488 6.776 58.168 6.576C57.848 6.368 57.488 6.264 57.088 6.264C56.688 6.264 56.316 6.368 55.972 6.576C55.636 6.784 55.372 7.076 55.18 7.452C54.988 7.82 54.912 8.26 54.952 8.772C54.912 9.284 54.992 9.732 55.192 10.116C55.4 10.492 55.68 10.784 56.032 10.992C56.392 11.2 56.776 11.304 57.184 11.304C57.656 11.304 58.052 11.192 58.372 10.968C58.692 10.744 58.952 10.464 59.152 10.128L59.92 10.536C59.792 10.824 59.596 11.092 59.332 11.34C59.068 11.58 58.752 11.776 58.384 11.928C58.024 12.072 57.624 12.144 57.184 12.144ZM64.0988 12.072C63.5228 12.072 63.0788 11.904 62.7668 11.568C62.4548 11.232 62.2988 10.752 62.2988 10.128V6.468H61.1108V5.568H61.4108C61.6828 5.568 61.8988 5.48 62.0588 5.304C62.2188 5.12 62.2988 4.892 62.2988 4.62V4.08H63.1988V5.568H64.6148V6.468H63.1988V10.128C63.1988 10.344 63.2308 10.536 63.2948 10.704C63.3588 10.864 63.4668 10.992 63.6188 11.088C63.7788 11.184 63.9908 11.232 64.2548 11.232C64.3188 11.232 64.3948 11.228 64.4828 11.22C64.5708 11.212 64.6468 11.204 64.7108 11.196V12C64.6148 12.024 64.5068 12.04 64.3868 12.048C64.2668 12.064 64.1708 12.072 64.0988 12.072Z" fill="#070E05"/>
<path d="M79.768 12.144C79.192 12.144 78.676 12.028 78.22 11.796C77.772 11.556 77.416 11.232 77.152 10.824C76.896 10.408 76.768 9.94 76.768 9.42C76.768 8.852 76.928 8.344 77.248 7.896C77.576 7.448 78.016 7.136 78.568 6.96V7.212C78.144 7.028 77.816 6.756 77.584 6.396C77.352 6.028 77.236 5.636 77.236 5.22C77.236 4.78 77.348 4.388 77.572 4.044C77.796 3.7 78.096 3.428 78.472 3.228C78.856 3.02 79.288 2.916 79.768 2.916C80.256 2.916 80.688 3.016 81.064 3.216C81.44 3.408 81.736 3.68 81.952 4.032C82.176 4.376 82.288 4.772 82.288 5.22C82.288 5.668 82.168 6.068 81.928 6.42C81.688 6.764 81.372 7.028 80.98 7.212L80.968 6.96C81.52 7.136 81.956 7.448 82.276 7.896C82.604 8.344 82.768 8.852 82.768 9.42C82.768 9.94 82.636 10.408 82.372 10.824C82.116 11.232 81.76 11.556 81.304 11.796C80.856 12.028 80.344 12.144 79.768 12.144ZM79.768 11.304C80.176 11.304 80.532 11.228 80.836 11.076C81.14 10.916 81.376 10.696 81.544 10.416C81.72 10.128 81.808 9.796 81.808 9.42C81.808 9.044 81.72 8.716 81.544 8.436C81.376 8.148 81.14 7.928 80.836 7.776C80.532 7.616 80.176 7.536 79.768 7.536C79.36 7.536 79 7.616 78.688 7.776C78.384 7.928 78.148 8.148 77.98 8.436C77.812 8.716 77.728 9.044 77.728 9.42C77.728 9.796 77.812 10.128 77.98 10.416C78.148 10.696 78.384 10.916 78.688 11.076C79 11.228 79.36 11.304 79.768 11.304ZM79.768 6.696C80.064 6.696 80.328 6.636 80.56 6.516C80.792 6.388 80.976 6.216 81.112 6C81.256 5.776 81.328 5.516 81.328 5.22C81.328 4.924 81.256 4.668 81.112 4.452C80.976 4.236 80.792 4.068 80.56 3.948C80.328 3.82 80.064 3.756 79.768 3.756C79.472 3.756 79.204 3.82 78.964 3.948C78.732 4.068 78.544 4.236 78.4 4.452C78.264 4.668 78.196 4.924 78.196 5.22C78.196 5.516 78.264 5.776 78.4 6C78.544 6.216 78.732 6.388 78.964 6.516C79.204 6.636 79.472 6.696 79.768 6.696ZM87.9392 12.144C87.2352 12.144 86.6152 11.952 86.0792 11.568C85.5512 11.176 85.1392 10.636 84.8432 9.948C84.5472 9.252 84.3992 8.444 84.3992 7.524C84.3992 6.604 84.5472 5.8 84.8432 5.112C85.1392 4.416 85.5512 3.876 86.0792 3.492C86.6072 3.108 87.2232 2.916 87.9272 2.916C88.6312 2.916 89.2472 3.108 89.7752 3.492C90.3032 3.876 90.7152 4.416 91.0112 5.112C91.3072 5.8 91.4552 6.604 91.4552 7.524C91.4552 8.444 91.3072 9.252 91.0112 9.948C90.7232 10.644 90.3152 11.184 89.7872 11.568C89.2592 11.952 88.6432 12.144 87.9392 12.144ZM87.9392 11.244C88.4512 11.244 88.8992 11.088 89.2832 10.776C89.6672 10.464 89.9672 10.032 90.1832 9.48C90.3992 8.92 90.5072 8.268 90.5072 7.524C90.5072 6.78 90.3992 6.132 90.1832 5.58C89.9672 5.02 89.6672 4.588 89.2832 4.284C88.8992 3.972 88.4472 3.816 87.9272 3.816C87.4152 3.816 86.9672 3.972 86.5832 4.284C86.1992 4.588 85.8992 5.02 85.6832 5.58C85.4672 6.132 85.3592 6.78 85.3592 7.524C85.3592 8.26 85.4672 8.908 85.6832 9.468C85.8992 10.028 86.1992 10.464 86.5832 10.776C86.9752 11.088 87.4272 11.244 87.9392 11.244ZM96.0193 12L103.339 3.06H104.503L97.1833 12H96.0193ZM97.3273 7.596C96.8953 7.596 96.5033 7.492 96.1513 7.284C95.7993 7.068 95.5153 6.784 95.2993 6.432C95.0913 6.08 94.9873 5.688 94.9873 5.256C94.9873 4.824 95.0913 4.432 95.2993 4.08C95.5153 3.72 95.7993 3.436 96.1513 3.228C96.5033 3.02 96.8953 2.916 97.3273 2.916C97.7593 2.916 98.1513 3.02 98.5033 3.228C98.8553 3.436 99.1353 3.72 99.3433 4.08C99.5513 4.432 99.6553 4.824 99.6553 5.256C99.6553 5.688 99.5513 6.08 99.3433 6.432C99.1353 6.784 98.8553 7.068 98.5033 7.284C98.1513 7.492 97.7593 7.596 97.3273 7.596ZM97.3273 6.732C97.6073 6.732 97.8513 6.664 98.0593 6.528C98.2753 6.384 98.4433 6.2 98.5633 5.976C98.6913 5.744 98.7553 5.504 98.7553 5.256C98.7553 5 98.6913 4.76 98.5633 4.536C98.4433 4.312 98.2753 4.132 98.0593 3.996C97.8513 3.852 97.6073 3.78 97.3273 3.78C97.0553 3.78 96.8073 3.852 96.5833 3.996C96.3673 4.132 96.1953 4.312 96.0673 4.536C95.9473 4.76 95.8873 5 95.8873 5.256C95.8873 5.504 95.9473 5.744 96.0673 5.976C96.1953 6.2 96.3673 6.384 96.5833 6.528C96.8073 6.664 97.0553 6.732 97.3273 6.732ZM103.087 12.144C102.655 12.144 102.263 12.04 101.911 11.832C101.559 11.616 101.275 11.332 101.059 10.98C100.851 10.628 100.747 10.236 100.747 9.804C100.747 9.372 100.851 8.98 101.059 8.628C101.275 8.268 101.559 7.984 101.911 7.776C102.263 7.568 102.655 7.464 103.087 7.464C103.519 7.464 103.911 7.568 104.263 7.776C104.615 7.984 104.895 8.268 105.103 8.628C105.311 8.98 105.415 9.372 105.415 9.804C105.415 10.236 105.311 10.628 105.103 10.98C104.895 11.332 104.615 11.616 104.263 11.832C103.911 12.04 103.519 12.144 103.087 12.144ZM103.087 11.28C103.367 11.28 103.611 11.212 103.819 11.076C104.035 10.932 104.203 10.748 104.323 10.524C104.451 10.292 104.515 10.052 104.515 9.804C104.515 9.548 104.451 9.308 104.323 9.084C104.203 8.86 104.035 8.68 103.819 8.544C103.611 8.4 103.367 8.328 103.087 8.328C102.815 8.328 102.567 8.4 102.343 8.544C102.127 8.68 101.955 8.86 101.827 9.084C101.707 9.308 101.647 9.548 101.647 9.804C101.647 10.052 101.707 10.292 101.827 10.524C101.955 10.748 102.127 10.932 102.343 11.076C102.567 11.212 102.815 11.28 103.087 11.28Z" fill="#028DEC"/>
<path d="M380.696 12V11.4L383.192 8.652C383.68 8.116 384.076 7.672 384.38 7.32C384.692 6.968 384.924 6.648 385.076 6.36C385.228 6.072 385.304 5.76 385.304 5.424C385.304 4.888 385.148 4.476 384.836 4.188C384.524 3.9 384.108 3.756 383.588 3.756C383.052 3.756 382.6 3.908 382.232 4.212C381.872 4.516 381.628 4.94 381.5 5.484L380.624 5.292C380.728 4.804 380.916 4.384 381.188 4.032C381.46 3.68 381.8 3.408 382.208 3.216C382.616 3.016 383.072 2.916 383.576 2.916C384.112 2.916 384.58 3.024 384.98 3.24C385.38 3.456 385.692 3.752 385.916 4.128C386.148 4.504 386.264 4.936 386.264 5.424C386.264 5.76 386.192 6.084 386.048 6.396C385.912 6.708 385.704 7.044 385.424 7.404C385.144 7.764 384.784 8.184 384.344 8.664L382.076 11.16H386.504V12H380.696ZM391.599 12.144C390.895 12.144 390.275 11.952 389.739 11.568C389.211 11.176 388.799 10.636 388.503 9.948C388.207 9.252 388.059 8.444 388.059 7.524C388.059 6.604 388.207 5.8 388.503 5.112C388.799 4.416 389.211 3.876 389.739 3.492C390.267 3.108 390.883 2.916 391.587 2.916C392.291 2.916 392.907 3.108 393.435 3.492C393.963 3.876 394.375 4.416 394.671 5.112C394.967 5.8 395.115 6.604 395.115 7.524C395.115 8.444 394.967 9.252 394.671 9.948C394.383 10.644 393.975 11.184 393.447 11.568C392.919 11.952 392.303 12.144 391.599 12.144ZM391.599 11.244C392.111 11.244 392.559 11.088 392.943 10.776C393.327 10.464 393.627 10.032 393.843 9.48C394.059 8.92 394.167 8.268 394.167 7.524C394.167 6.78 394.059 6.132 393.843 5.58C393.627 5.02 393.327 4.588 392.943 4.284C392.559 3.972 392.107 3.816 391.587 3.816C391.075 3.816 390.627 3.972 390.243 4.284C389.859 4.588 389.559 5.02 389.343 5.58C389.127 6.132 389.019 6.78 389.019 7.524C389.019 8.26 389.127 8.908 389.343 9.468C389.559 10.028 389.859 10.464 390.243 10.776C390.635 11.088 391.087 11.244 391.599 11.244ZM399.679 12L406.999 3.06H408.163L400.843 12H399.679ZM400.987 7.596C400.555 7.596 400.163 7.492 399.811 7.284C399.459 7.068 399.175 6.784 398.959 6.432C398.751 6.08 398.647 5.688 398.647 5.256C398.647 4.824 398.751 4.432 398.959 4.08C399.175 3.72 399.459 3.436 399.811 3.228C400.163 3.02 400.555 2.916 400.987 2.916C401.419 2.916 401.811 3.02 402.163 3.228C402.515 3.436 402.795 3.72 403.003 4.08C403.211 4.432 403.315 4.824 403.315 5.256C403.315 5.688 403.211 6.08 403.003 6.432C402.795 6.784 402.515 7.068 402.163 7.284C401.811 7.492 401.419 7.596 400.987 7.596ZM400.987 6.732C401.267 6.732 401.511 6.664 401.719 6.528C401.935 6.384 402.103 6.2 402.223 5.976C402.351 5.744 402.415 5.504 402.415 5.256C402.415 5 402.351 4.76 402.223 4.536C402.103 4.312 401.935 4.132 401.719 3.996C401.511 3.852 401.267 3.78 400.987 3.78C400.715 3.78 400.467 3.852 400.243 3.996C400.027 4.132 399.855 4.312 399.727 4.536C399.607 4.76 399.547 5 399.547 5.256C399.547 5.504 399.607 5.744 399.727 5.976C399.855 6.2 400.027 6.384 400.243 6.528C400.467 6.664 400.715 6.732 400.987 6.732ZM406.747 12.144C406.315 12.144 405.923 12.04 405.571 11.832C405.219 11.616 404.935 11.332 404.719 10.98C404.511 10.628 404.407 10.236 404.407 9.804C404.407 9.372 404.511 8.98 404.719 8.628C404.935 8.268 405.219 7.984 405.571 7.776C405.923 7.568 406.315 7.464 406.747 7.464C407.179 7.464 407.571 7.568 407.923 7.776C408.275 7.984 408.555 8.268 408.763 8.628C408.971 8.98 409.075 9.372 409.075 9.804C409.075 10.236 408.971 10.628 408.763 10.98C408.555 11.332 408.275 11.616 407.923 11.832C407.571 12.04 407.179 12.144 406.747 12.144ZM406.747 11.28C407.027 11.28 407.271 11.212 407.479 11.076C407.695 10.932 407.863 10.748 407.983 10.524C408.111 10.292 408.175 10.052 408.175 9.804C408.175 9.548 408.111 9.308 407.983 9.084C407.863 8.86 407.695 8.68 407.479 8.544C407.271 8.4 407.027 8.328 406.747 8.328C406.475 8.328 406.227 8.4 406.003 8.544C405.787 8.68 405.615 8.86 405.487 9.084C405.367 9.308 405.307 9.548 405.307 9.804C405.307 10.052 405.367 10.292 405.487 10.524C405.615 10.748 405.787 10.932 406.003 11.076C406.227 11.212 406.475 11.28 406.747 11.28Z" fill="#028DEC"/>
<path d="M424.986 12L421.71 3.06H422.706L425.586 11.148H425.394L428.262 3.06H429.27L425.994 12H424.986ZM431.71 12.144C431.302 12.144 430.938 12.068 430.618 11.916C430.298 11.756 430.046 11.54 429.862 11.268C429.678 10.996 429.586 10.684 429.586 10.332C429.586 9.996 429.658 9.692 429.802 9.42C429.946 9.14 430.17 8.904 430.474 8.712C430.778 8.52 431.166 8.384 431.638 8.304L434.158 7.884V8.7L431.854 9.084C431.39 9.164 431.054 9.312 430.846 9.528C430.646 9.744 430.546 10 430.546 10.296C430.546 10.584 430.658 10.828 430.882 11.028C431.114 11.228 431.41 11.328 431.77 11.328C432.21 11.328 432.594 11.236 432.922 11.052C433.25 10.86 433.506 10.604 433.69 10.284C433.874 9.964 433.966 9.608 433.966 9.216V7.584C433.966 7.2 433.826 6.888 433.546 6.648C433.266 6.408 432.902 6.288 432.454 6.288C432.062 6.288 431.718 6.388 431.422 6.588C431.126 6.78 430.906 7.032 430.762 7.344L429.946 6.9C430.066 6.628 430.254 6.38 430.51 6.156C430.774 5.932 431.074 5.756 431.41 5.628C431.746 5.492 432.094 5.424 432.454 5.424C432.926 5.424 433.342 5.516 433.702 5.7C434.07 5.884 434.354 6.14 434.554 6.468C434.762 6.788 434.866 7.16 434.866 7.584V12H433.966V10.716L434.098 10.848C433.986 11.088 433.81 11.308 433.57 11.508C433.338 11.7 433.062 11.856 432.742 11.976C432.43 12.088 432.086 12.144 431.71 12.144ZM436.717 12V2.916H437.617V12H436.717ZM439.459 12V5.568H440.359V12H439.459ZM439.459 4.38V3.06H440.359V4.38H439.459ZM445.105 12.144C444.505 12.144 443.965 12 443.485 11.712C443.005 11.416 442.625 11.016 442.345 10.512C442.073 10 441.937 9.424 441.937 8.784C441.937 8.136 442.073 7.56 442.345 7.056C442.625 6.552 443.001 6.156 443.473 5.868C443.953 5.572 444.497 5.424 445.105 5.424C445.657 5.424 446.149 5.544 446.581 5.784C447.013 6.024 447.353 6.348 447.601 6.756L447.457 7.008V2.916H448.357V12H447.457V10.56L447.601 10.692C447.377 11.156 447.041 11.516 446.593 11.772C446.153 12.02 445.657 12.144 445.105 12.144ZM445.153 11.244C445.585 11.244 445.973 11.136 446.317 10.92C446.669 10.704 446.945 10.412 447.145 10.044C447.353 9.668 447.457 9.248 447.457 8.784C447.457 8.32 447.353 7.904 447.145 7.536C446.945 7.16 446.669 6.864 446.317 6.648C445.973 6.432 445.585 6.324 445.153 6.324C444.729 6.324 444.345 6.432 444.001 6.648C443.657 6.864 443.385 7.156 443.185 7.524C442.993 7.892 442.897 8.312 442.897 8.784C442.897 9.248 442.993 9.668 443.185 10.044C443.385 10.412 443.653 10.704 443.989 10.92C444.333 11.136 444.721 11.244 445.153 11.244ZM452.065 12.144C451.657 12.144 451.293 12.068 450.973 11.916C450.653 11.756 450.401 11.54 450.217 11.268C450.033 10.996 449.941 10.684 449.941 10.332C449.941 9.996 450.013 9.692 450.157 9.42C450.301 9.14 450.525 8.904 450.829 8.712C451.133 8.52 451.521 8.384 451.993 8.304L454.513 7.884V8.7L452.209 9.084C451.745 9.164 451.409 9.312 451.201 9.528C451.001 9.744 450.901 10 450.901 10.296C450.901 10.584 451.013 10.828 451.237 11.028C451.469 11.228 451.765 11.328 452.125 11.328C452.565 11.328 452.949 11.236 453.277 11.052C453.605 10.86 453.861 10.604 454.045 10.284C454.229 9.964 454.321 9.608 454.321 9.216V7.584C454.321 7.2 454.181 6.888 453.901 6.648C453.621 6.408 453.257 6.288 452.809 6.288C452.417 6.288 452.073 6.388 451.777 6.588C451.481 6.78 451.261 7.032 451.117 7.344L450.301 6.9C450.421 6.628 450.609 6.38 450.865 6.156C451.129 5.932 451.429 5.756 451.765 5.628C452.101 5.492 452.449 5.424 452.809 5.424C453.281 5.424 453.697 5.516 454.057 5.7C454.425 5.884 454.709 6.14 454.909 6.468C455.117 6.788 455.221 7.16 455.221 7.584V12H454.321V10.716L454.453 10.848C454.341 11.088 454.165 11.308 453.925 11.508C453.693 11.7 453.417 11.856 453.097 11.976C452.785 12.088 452.441 12.144 452.065 12.144ZM459.415 12.072C458.839 12.072 458.395 11.904 458.083 11.568C457.771 11.232 457.615 10.752 457.615 10.128V6.468H456.427V5.568H456.727C456.999 5.568 457.215 5.48 457.375 5.304C457.535 5.12 457.615 4.892 457.615 4.62V4.08H458.515V5.568H459.931V6.468H458.515V10.128C458.515 10.344 458.547 10.536 458.611 10.704C458.675 10.864 458.783 10.992 458.935 11.088C459.095 11.184 459.307 11.232 459.571 11.232C459.635 11.232 459.711 11.228 459.799 11.22C459.887 11.212 459.963 11.204 460.027 11.196V12C459.931 12.024 459.823 12.04 459.703 12.048C459.583 12.064 459.487 12.072 459.415 12.072ZM461.608 12V5.568H462.508V12H461.608ZM461.608 4.38V3.06H462.508V4.38H461.608ZM467.362 12.144C466.754 12.144 466.202 12 465.706 11.712C465.21 11.416 464.814 11.016 464.518 10.512C464.23 10 464.086 9.42 464.086 8.772C464.086 8.132 464.23 7.56 464.518 7.056C464.806 6.552 465.194 6.156 465.682 5.868C466.178 5.572 466.738 5.424 467.362 5.424C467.986 5.424 468.542 5.568 469.03 5.856C469.526 6.144 469.914 6.54 470.194 7.044C470.482 7.548 470.626 8.124 470.626 8.772C470.626 9.428 470.478 10.012 470.182 10.524C469.886 11.028 469.49 11.424 468.994 11.712C468.506 12 467.962 12.144 467.362 12.144ZM467.362 11.244C467.794 11.244 468.182 11.136 468.526 10.92C468.878 10.704 469.154 10.408 469.354 10.032C469.562 9.656 469.666 9.236 469.666 8.772C469.666 8.308 469.562 7.892 469.354 7.524C469.154 7.156 468.878 6.864 468.526 6.648C468.182 6.432 467.794 6.324 467.362 6.324C466.93 6.324 466.538 6.432 466.186 6.648C465.842 6.864 465.566 7.156 465.358 7.524C465.15 7.892 465.046 8.308 465.046 8.772C465.046 9.236 465.15 9.656 465.358 10.032C465.566 10.408 465.842 10.704 466.186 10.92C466.538 11.136 466.93 11.244 467.362 11.244ZM472.213 12V5.568H473.113V6.816L472.909 6.768C473.069 6.352 473.329 6.024 473.689 5.784C474.057 5.544 474.481 5.424 474.961 5.424C475.417 5.424 475.825 5.528 476.185 5.736C476.553 5.944 476.841 6.232 477.049 6.6C477.265 6.96 477.373 7.368 477.373 7.824V12H476.473V8.172C476.473 7.78 476.401 7.448 476.257 7.176C476.121 6.904 475.925 6.696 475.669 6.552C475.421 6.4 475.133 6.324 474.805 6.324C474.477 6.324 474.185 6.4 473.929 6.552C473.673 6.696 473.473 6.908 473.329 7.188C473.185 7.46 473.113 7.788 473.113 8.172V12H472.213ZM484.275 12.144C483.707 12.144 483.191 12.036 482.727 11.82C482.263 11.604 481.871 11.316 481.551 10.956C481.231 10.588 481.003 10.184 480.867 9.744L481.731 9.42C481.939 10.028 482.263 10.492 482.703 10.812C483.143 11.124 483.667 11.28 484.275 11.28C484.659 11.28 484.995 11.22 485.283 11.1C485.579 10.972 485.807 10.796 485.967 10.572C486.127 10.348 486.207 10.088 486.207 9.792C486.207 9.352 486.087 9.012 485.847 8.772C485.607 8.532 485.263 8.348 484.815 8.22L483.207 7.74C482.575 7.556 482.087 7.248 481.743 6.816C481.407 6.384 481.239 5.892 481.239 5.34C481.239 4.868 481.355 4.452 481.587 4.092C481.819 3.724 482.135 3.436 482.535 3.228C482.943 3.02 483.403 2.916 483.915 2.916C484.451 2.916 484.931 3.016 485.355 3.216C485.787 3.408 486.151 3.664 486.447 3.984C486.743 4.304 486.955 4.66 487.083 5.052L486.243 5.388C486.051 4.86 485.751 4.46 485.343 4.188C484.943 3.916 484.471 3.78 483.927 3.78C483.583 3.78 483.279 3.84 483.015 3.96C482.759 4.08 482.559 4.252 482.415 4.476C482.271 4.7 482.199 4.964 482.199 5.268C482.199 5.636 482.315 5.968 482.547 6.264C482.779 6.552 483.135 6.768 483.615 6.912L485.031 7.332C485.735 7.54 486.267 7.84 486.627 8.232C486.987 8.624 487.167 9.116 487.167 9.708C487.167 10.188 487.043 10.612 486.795 10.98C486.555 11.34 486.215 11.624 485.775 11.832C485.343 12.04 484.843 12.144 484.275 12.144ZM491.817 12.144C491.217 12.144 490.673 12 490.185 11.712C489.705 11.416 489.325 11.012 489.045 10.5C488.765 9.988 488.625 9.408 488.625 8.76C488.625 8.112 488.761 7.54 489.033 7.044C489.305 6.54 489.673 6.144 490.137 5.856C490.609 5.568 491.137 5.424 491.721 5.424C492.185 5.424 492.597 5.512 492.957 5.688C493.325 5.856 493.637 6.088 493.893 6.384C494.149 6.672 494.345 7 494.481 7.368C494.617 7.728 494.685 8.1 494.685 8.484C494.685 8.564 494.681 8.656 494.673 8.76C494.665 8.856 494.653 8.956 494.637 9.06H489.201V8.22H494.121L493.689 8.58C493.761 8.14 493.709 7.748 493.533 7.404C493.365 7.052 493.121 6.776 492.801 6.576C492.481 6.368 492.121 6.264 491.721 6.264C491.321 6.264 490.949 6.368 490.605 6.576C490.269 6.784 490.005 7.076 489.813 7.452C489.621 7.82 489.545 8.26 489.585 8.772C489.545 9.284 489.625 9.732 489.825 10.116C490.033 10.492 490.313 10.784 490.665 10.992C491.025 11.2 491.409 11.304 491.817 11.304C492.289 11.304 492.685 11.192 493.005 10.968C493.325 10.744 493.585 10.464 493.785 10.128L494.553 10.536C494.425 10.824 494.229 11.092 493.965 11.34C493.701 11.58 493.385 11.776 493.017 11.928C492.657 12.072 492.257 12.144 491.817 12.144ZM498.732 12.072C498.156 12.072 497.712 11.904 497.4 11.568C497.088 11.232 496.932 10.752 496.932 10.128V6.468H495.744V5.568H496.044C496.316 5.568 496.532 5.48 496.692 5.304C496.852 5.12 496.932 4.892 496.932 4.62V4.08H497.832V5.568H499.248V6.468H497.832V10.128C497.832 10.344 497.864 10.536 497.928 10.704C497.992 10.864 498.1 10.992 498.252 11.088C498.412 11.184 498.624 11.232 498.888 11.232C498.952 11.232 499.028 11.228 499.116 11.22C499.204 11.212 499.28 11.204 499.344 11.196V12C499.248 12.024 499.14 12.04 499.02 12.048C498.9 12.064 498.804 12.072 498.732 12.072Z" fill="#070E05"/>
</svg>
